<svg width="10" height="13" viewBox="0 0 10 13" fill="none" xmlns="http://www.w3.org/2000/svg">
<path d="M2.07055 2.27259C2.32151 1.33602 2.44698 0.867729 2.87917 0.67286C3.31135 0.477992 3.69277 0.667822 4.45561 1.04748C5.02972 1.33321 5.57639 1.67419 6.08761 2.06647C7.12946 2.8659 8.00364 3.86272 8.66025 5C9.31686 6.13728 9.74304 7.39275 9.91445 8.69474C9.99856 9.3336 10.0205 9.97753 9.98091 10.6176C9.92829 11.4681 9.90197 11.8933 9.51712 12.1701C9.13227 12.447 8.66398 12.3215 7.72741 12.0706L1.93185 10.5176C1.02117 10.2736 0.565826 10.1516 0.358719 9.79289C0.151613 9.43417 0.273621 8.97883 0.517638 8.06815L2.07055 2.27259Z" fill="#111111"/>
</svg>
